<?xml version="1.0" encoding="utf-8"?>
<!-- Generator: Adobe Illustrator 24.0.1, SVG Export Plug-In . SVG Version: 6.00 Build 0)  -->
<svg version="1.1" id="Camada_3" xmlns="http://www.w3.org/2000/svg" xmlns:xlink="http://www.w3.org/1999/xlink" x="0px" y="0px"
	 viewBox="0 0 150 150" style="enable-background:new 0 0 150 150;" xml:space="preserve">
<path d="M131.5,148.3l-3.1-3.1c-10.9-23.3,2.2-60.4-15.7-79.3l-0.4-11.2l8,2.3l1.6,4.6c19.5,23,3.4,63.6,9.6,81.5l6.7,7L131.5,148.3
	z"/>
<path d="M0.6,11.8l7,6.7c17.8,6.3,58.5-9.9,81.5,9.6l4.6,1.6l2.3,8l-11.2-0.4c-18.9-17.9-56-4.8-79.3-15.7l-3.1-3.1L0.6,11.8z"/>
<g>
	<polygon points="82.9,41.3 97.1,41.3 103.2,47.5 95.9,54.4 	"/>
	<polygon points="109.3,67.6 109.3,53.6 103.2,47.5 95.9,54.4 	"/>
</g>
<g>
	<polygon points="134.8,13.1 137.5,15.9 107.5,46.6 104.7,43.9 	"/>
	<g>
		<polygon points="143.3,6.3 132.2,11.4 131.7,19.1 		"/>
		<polygon points="143.3,6.3 139.3,17.9 131.7,19.1 		"/>
	</g>
</g>
<g>
	<polygon points="91.7,56.2 94.5,58.9 26.8,127.3 24,124.6 	"/>
	<g>
		<polygon points="38.2,115.7 39.1,121.3 35.6,125 34.6,119.2 		"/>
		<polygon points="32.6,121.2 33.5,126.8 29.8,130.5 28.8,124.8 		"/>
	</g>
	<g>
		<polygon points="31.9,116.9 26.2,115.7 29.9,112.2 35.6,113.3 		"/>
		<polygon points="26.2,122.4 20.5,121.3 24.3,117.7 29.9,118.8 		"/>
	</g>
</g>
<polygon points="6.6,24.8 9.8,25.8 37.8,106.5 35.6,108.4 "/>
<polygon points="125.8,145.2 124.7,142 44.1,113.9 42.2,116.1 "/>
</svg>
