<?xml version="1.0" encoding="utf-8"?>
<!-- Generator: Adobe Illustrator 24.0.1, SVG Export Plug-In . SVG Version: 6.00 Build 0)  -->
<svg version="1.1" id="Camada_3" xmlns="http://www.w3.org/2000/svg" xmlns:xlink="http://www.w3.org/1999/xlink" x="0px" y="0px"
	 viewBox="0 0 150 150" style="enable-background:new 0 0 150 150;" xml:space="preserve">
<g>
	<path d="M69.5,69.6C51.7,76,42.4,95.6,48.8,113.4s25.9,27.1,43.8,20.7c17.8-6.4,27.1-25.9,20.7-43.8S87.3,63.3,69.5,69.6z
		 M90.9,129.5c-15.3,5.4-32.1-2.5-37.5-17.8c-5.4-15.3,2.5-32.1,17.8-37.5c15.3-5.4,32.1,2.5,37.5,17.8
		C114.1,107.3,106.1,124.1,90.9,129.5z"/>
	<circle cx="81" cy="101.9" r="5.6"/>
	<g>
		<path d="M105.7,89.6l-18.5,6.6l8.4-17.7c-1.8-1.1-3.8-2.1-5.8-2.7l-8.4,17.7L74.8,75c-1,0.2-2.1,0.5-3.1,0.9c-1,0.4-2,0.8-3,1.3
			l6.6,18.5l-17.7-8.4c-1.1,1.8-2.1,3.8-2.7,5.8l17.7,8.4L54.2,108c0.2,1,0.5,2.1,0.9,3.1c0.4,1,0.8,2,1.3,3l18.5-6.6l-8.4,17.7
			c1.8,1.1,3.8,2.1,5.8,2.7l8.4-17.7l6.6,18.5c1-0.2,2.1-0.5,3.1-0.9s2-0.8,3-1.3l-6.6-18.5l17.7,8.4c1.1-1.8,2.1-3.8,2.7-5.8
			l-17.7-8.4l18.5-6.6c-0.2-1-0.5-2.1-0.9-3.1S106.2,90.6,105.7,89.6z M88.1,102.8c-0.2,1.5-0.9,2.9-1.9,4c-0.2,0.3-0.5,0.5-0.8,0.7
			c-0.6,0.5-1.2,0.8-2,1.1c-0.7,0.3-1.5,0.4-2.2,0.4c-0.4,0-0.7,0-1.1-0.1c-1.5-0.2-2.9-0.9-4-1.9c-0.3-0.2-0.5-0.5-0.7-0.8
			c-0.5-0.6-0.8-1.2-1.1-2c-0.3-0.7-0.4-1.5-0.4-2.2c0-0.4,0-0.7,0.1-1.1c0.2-1.5,0.9-2.9,1.9-4c0.2-0.3,0.5-0.5,0.8-0.7
			c0.6-0.5,1.2-0.8,2-1.1c0.7-0.3,1.5-0.4,2.2-0.4c0.4,0,0.7,0,1.1,0.1c1.5,0.2,2.9,0.9,4,1.9c0.3,0.2,0.5,0.5,0.7,0.8
			c0.5,0.6,0.8,1.2,1.1,2c0.3,0.7,0.4,1.5,0.4,2.2C88.1,102.1,88.1,102.4,88.1,102.8z"/>
	</g>
	<g>
		<polygon points="142,23.9 149.5,34.4 147.9,39.7 144.3,39.4 136.2,28.1 		"/>
		<polygon points="142.4,24.5 134.8,14 129.3,13.9 128.4,17.4 136.6,28.7 		"/>
	</g>
	<path d="M133.7,30.2l-7.6-10.4L30.2,76.2c-16,9.2-15.5,24.8-7.2,33c0.9-2.4,1.8-4.8,2.6-7.4c1.8-9.7,12.9-7.8,13,0v12.5
		c2.2-0.3,4.4-0.9,6.7-2c-0.6-3.3-1.1-6.8-1.3-11c0.3-15,9.6-29,24.6-34.3c12.8-4.6,26.5-1.7,36.2,6.5l36.7-32.5L133.7,30.2z"/>
	<path d="M36.2,136.1H0.5l0-10.2c14.7-0.2,23.3-9.2,27.9-24.1c1.1-5.9,7.8-4.7,7.8,0L36.2,136.1z"/>
</g>
</svg>
