<?xml version="1.0" encoding="utf-8"?>
<!-- Generator: Adobe Illustrator 24.0.1, SVG Export Plug-In . SVG Version: 6.00 Build 0)  -->
<svg version="1.1" id="Camada_3" xmlns="http://www.w3.org/2000/svg" xmlns:xlink="http://www.w3.org/1999/xlink" x="0px" y="0px"
	 viewBox="0 0 150 150" style="enable-background:new 0 0 150 150;" xml:space="preserve">
<image style="display:none;overflow:visible;enable-background:new    ;" width="317" height="408" xlink:href="8F8542DF.jpg"  transform="matrix(0.2059 0 0 0.2059 15.7865 23.3342)">
</image>
<polygon points="78.8,57.8 83.3,69.5 135.1,91 90.1,56.4 "/>
<polygon points="75,79.1 83.7,81.9 75,92.4 "/>
<polygon points="75,112.2 97.4,103.7 83.7,140.5 75,150 "/>
<path d="M105.3,3c-10.6,0-19.2,8.6-19.2,19.2s8.6,19.2,19.2,19.2s19.2-8.6,19.2-19.2S115.9,3,105.3,3z M105.3,37.1
	c-8.2,0-14.9-6.7-14.9-14.9s6.7-14.9,14.9-14.9s14.9,6.7,14.9,14.9S113.5,37.1,105.3,37.1z"/>
<polygon points="59.9,56.4 14.9,91 66.7,69.5 71.2,57.8 "/>
<polygon points="75,92.4 66.3,81.9 75,79.1 "/>
<polygon points="75,150 66.3,140.5 52.6,103.7 75,112.2 "/>
<path d="M25.5,22.2c0,10.6,8.6,19.2,19.2,19.2s19.2-8.6,19.2-19.2S55.3,3,44.7,3S25.5,11.6,25.5,22.2z M29.9,22.2
	c0-8.2,6.7-14.9,14.9-14.9S59.6,14,59.6,22.2s-6.7,14.9-14.9,14.9S29.9,30.4,29.9,22.2z"/>
<path d="M63.6,24.3c5.7-0.4,5.4-2.6,11.4-2.7v-4.5c-7.1-0.1-7.1,2.5-12.8,2.8L63.6,24.3z"/>
<path d="M86.4,24.3c-5.7-0.4-5.4-2.6-11.4-2.7v-4.5c7.1-0.1,7.1,2.5,12.8,2.8L86.4,24.3z"/>
</svg>
