<?xml version="1.0" encoding="utf-8"?>
<!-- Generator: Adobe Illustrator 24.0.1, SVG Export Plug-In . SVG Version: 6.00 Build 0)  -->
<svg version="1.1" id="Camada_3" xmlns="http://www.w3.org/2000/svg" xmlns:xlink="http://www.w3.org/1999/xlink" x="0px" y="0px"
	 viewBox="0 0 150 150" style="enable-background:new 0 0 150 150;" xml:space="preserve">
<image style="display:none;overflow:visible;" width="312" height="405" xlink:href="8F8542DF.jpg"  transform="matrix(0.2081 0 0 0.2081 15.96 23.2)">
</image>
<g>
	<g>
		<g>
			<polygon points="77.4,83.1 80.2,90.4 112.5,103.8 84.4,82.2 			"/>
			<polygon points="72.6,83.1 69.8,90.4 37.5,103.8 65.6,82.2 			"/>
		</g>
		<g>
			<polygon points="75,96.4 80.4,98.1 75,104.7 			"/>
			<polygon points="75,96.4 69.6,98.1 75,104.7 			"/>
		</g>
		<g>
			<polygon points="75,117 89,111.7 80.4,134.7 75,140.6 			"/>
			<polygon points="75,117 61,111.7 69.6,134.7 75,140.6 			"/>
		</g>
	</g>
	<g>
		<polygon points="75,9.4 148.5,50.4 75,59.7 		"/>
		<polygon points="75,9.4 1.5,50.4 75,59.7 		"/>
	</g>
</g>
</svg>
