<?xml version="1.0" encoding="utf-8"?>
<!-- Generator: Adobe Illustrator 24.0.1, SVG Export Plug-In . SVG Version: 6.00 Build 0)  -->
<svg version="1.1" id="Camada_3" xmlns="http://www.w3.org/2000/svg" xmlns:xlink="http://www.w3.org/1999/xlink" x="0px" y="0px"
	 viewBox="0 0 150 150" style="enable-background:new 0 0 150 150;" xml:space="preserve">
<image style="display:none;overflow:visible;" width="593" height="101" xlink:href="A4D51AAD.jpg"  transform="matrix(0.2427 0 0 0.2427 3.0506 41.2767)">
</image>
<g>
	<polygon points="126.2,92.6 117.2,37.3 130.2,22.8 130.2,0.8 102.7,0.8 102.7,7.6 89.7,7.6 89.7,0.8 75,0.8 60.3,0.8 60.3,7.6 
		47.3,7.6 47.3,0.8 19.8,0.8 19.8,22.8 32.8,37.3 23.8,92.7 75,102.1 	"/>
	<polygon points="126.2,101 75,110.3 23.8,101 23.8,101 12.7,104.5 12.7,136.2 75,149.2 137.3,136.2 137.3,104.5 	"/>
</g>
</svg>
