<?xml version="1.0" encoding="utf-8"?>
<!-- Generator: Adobe Illustrator 24.0.1, SVG Export Plug-In . SVG Version: 6.00 Build 0)  -->
<svg version="1.1" id="Camada_3" xmlns="http://www.w3.org/2000/svg" xmlns:xlink="http://www.w3.org/1999/xlink" x="0px" y="0px"
	 viewBox="0 0 150 150" style="enable-background:new 0 0 150 150;" xml:space="preserve">
<image style="display:none;overflow:visible;" width="593" height="101" xlink:href="8E9DDC4F.jpg"  transform="matrix(0.2427 0 0 0.2427 3.0506 41.2767)">
</image>
<polygon points="31,47.8 37.8,68.5 59.6,68.5 41.9,81.3 48.7,102.1 31,89.3 13.4,102.1 20.1,81.3 2.5,68.5 24.3,68.5 "/>
<polygon points="119,47.8 125.7,68.5 147.5,68.5 129.9,81.3 136.6,102.1 119,89.3 101.3,102.1 108.1,81.3 90.4,68.5 112.2,68.5 "/>
<polygon points="75,0.9 81.7,21.7 103.5,21.7 85.9,34.5 92.6,55.2 75,42.4 57.4,55.2 64.1,34.5 46.5,21.7 68.3,21.7 "/>
<polygon points="75,94.1 81.7,114.9 103.5,114.9 85.9,127.7 92.6,148.4 75,135.6 57.4,148.4 64.1,127.7 46.5,114.9 68.3,114.9 "/>
</svg>
