<?xml version="1.0" encoding="utf-8"?>
<!-- Generator: Adobe Illustrator 24.0.1, SVG Export Plug-In . SVG Version: 6.00 Build 0)  -->
<svg version="1.1" id="Camada_1" xmlns="http://www.w3.org/2000/svg" xmlns:xlink="http://www.w3.org/1999/xlink" x="0px" y="0px"
	 viewBox="0 0 150 150" style="enable-background:new 0 0 150 150;" xml:space="preserve">
<style type="text/css">
	.st0{stroke:#000000;stroke-width:0.25;stroke-linejoin:round;stroke-miterlimit:10;}
</style>
<g>
	<path class="st0" d="M38.08,114.31h35.08l-0.1-56.96l-9.44-5.55C36.42,36.52-3.09,68.26,38.08,114.31z"/>
	<path class="st0" d="M108.28,114.31H73.2l0.1-56.96l9.44-5.55C109.95,36.52,149.45,68.26,108.28,114.31z"/>
</g>
<g>
	<path class="st0" d="M73.2,49.84l-9.02-5.39l3.08-13.21c-3.29-5.13-16.62-2.82-19.95,1.41c-0.22-14.49,14.29-18.36,20.2-11.4
		C62.82,5.73,73.2,2.45,73.2,1.08V49.84z"/>
	<path class="st0" d="M73.16,49.84l9.02-5.39l-3.08-13.21c3.29-5.13,16.62-2.82,19.95,1.41c0.22-14.49-14.29-18.36-20.2-11.4
		c4.7-15.51-5.69-18.79-5.69-20.16V49.84z"/>
</g>
<g>
	<polygon class="st0" points="73.18,148.27 73.18,148.27 73.18,148.27 	"/>
	<polygon class="st0" points="73.18,142.22 66.24,135.28 73.17,128.36 73.16,122.3 38.08,122.3 33.09,144.42 73.18,148.27 
		73.18,146.05 	"/>
	<polygon class="st0" points="80.16,135.28 73.2,142.24 73.18,142.23 73.18,146.05 73.18,148.27 113.27,144.42 108.28,122.3 
		73.2,122.3 73.2,128.33 73.2,128.32 	"/>
	<polygon class="st0" points="73.18,148.27 73.18,148.27 73.18,148.27 	"/>
</g>
</svg>
