<?xml version="1.0" encoding="utf-8"?>
<!-- Generator: Adobe Illustrator 24.0.1, SVG Export Plug-In . SVG Version: 6.00 Build 0)  -->
<svg version="1.1" id="Camada_3" xmlns="http://www.w3.org/2000/svg" xmlns:xlink="http://www.w3.org/1999/xlink" x="0px" y="0px"
	 viewBox="0 0 150 150" style="enable-background:new 0 0 150 150;" xml:space="preserve">
<image style="display:none;overflow:visible;" width="593" height="101" xlink:href="8C696EC9.jpg"  transform="matrix(0.2427 0 0 0.2427 3.0506 41.2767)">
</image>
<g>
	<polygon points="31,78.8 37.8,99.5 59.6,99.5 41.9,112.3 48.7,133.1 31,120.3 13.4,133.1 20.1,112.3 2.5,99.5 24.3,99.5 	"/>
	<polygon points="119,78.8 125.7,99.5 147.5,99.5 129.9,112.3 136.6,133.1 119,120.3 101.3,133.1 108.1,112.3 90.4,99.5 112.2,99.5 
			"/>
	<polygon points="75,16.9 81.7,37.7 103.5,37.7 85.9,50.5 92.6,71.2 75,58.4 57.4,71.2 64.1,50.5 46.5,37.7 68.3,37.7 	"/>
</g>
</svg>
