<?xml version="1.0" encoding="utf-8"?>
<!-- Generator: Adobe Illustrator 24.0.1, SVG Export Plug-In . SVG Version: 6.00 Build 0)  -->
<svg version="1.1" id="Camada_3" xmlns="http://www.w3.org/2000/svg" xmlns:xlink="http://www.w3.org/1999/xlink" x="0px" y="0px"
	 viewBox="0 0 150 150" style="enable-background:new 0 0 150 150;" xml:space="preserve">
<image style="display:none;overflow:visible;enable-background:new    ;" width="594" height="103" xlink:href="2AE919D2.jpg"  transform="matrix(0.2422 0 0 0.2422 3.0876 41.0615)">
</image>
<g>
	<g>
		<path d="M32.3,106.8l36.3-30.9l-6.2-7.2L32.1,94.2C29.7,96.7,29.7,101,32.3,106.8z"/>
		<polygon points="71.1,74.2 100.4,48.1 94.8,41.6 64.7,66.8 		"/>
		<path d="M96.7,39.9l31.5-26.5c3.4,3.5,4.7,6.2,3,8l-28.9,24.9L96.7,39.9z"/>
		<polygon points="130.1,11.9 144,0.2 146.8,3.5 132.9,15.1 		"/>
		<path d="M147.5,4.9l1.8,2.1l-11.2,9.4c-0.4-1.6,0-3.2,1.7-5.1L147.5,4.9z"/>
	</g>
	<path d="M39.5,104.6l-0.6-0.8l-7.4,6.2c-2-3.9-2.9-7.3-2.8-9.8l-3.8,12.5c-0.3,1-3.3-0.1-4.4,1l-19.8,17
		c-1.4,2.1,19.4,20.9,20.8,18.7l15.2-39.8l1.6-4.1c2,3.1,4,3.9,6.1,3.1C42.7,108.6,41,107.8,39.5,104.6z"/>
	<path d="M32.1,90.9l2.2-1.7l-3.1-6.9l-0.7,0.1C31.7,85.5,32.2,88.4,32.1,90.9z"/>
</g>
</svg>
