<?xml version="1.0" encoding="utf-8"?>
<!-- Generator: Adobe Illustrator 24.0.1, SVG Export Plug-In . SVG Version: 6.00 Build 0)  -->
<svg version="1.1" id="Camada_3" xmlns="http://www.w3.org/2000/svg" xmlns:xlink="http://www.w3.org/1999/xlink" x="0px" y="0px"
	 viewBox="0 0 150 150" style="enable-background:new 0 0 150 150;" xml:space="preserve">
<image style="display:none;overflow:visible;" width="593" height="101" xlink:href="2AE919D2.jpg"  transform="matrix(0.2427 0 0 0.2427 3.0506 41.2767)">
</image>
<g>
	<path d="M30.5,107.7l35.7-30.2l-4-4.7L32.5,97.7C30,100.1,29.3,103.5,30.5,107.7z"/>
	<polygon points="68.6,75.8 97.6,50.5 94,46.2 64.5,70.9 	"/>
	<path d="M95.9,44.6l30.9-25.9c2.3,2.2,2.9,4.2,1.2,5.9L99.5,48.9L95.9,44.6z"/>
	<rect x="127.5" y="11.1" transform="matrix(0.7663 -0.6425 0.6425 0.7663 23.8463 90.55)" width="17.8" height="2.8"/>
	<path d="M144.5,8.9l1.2,1.4l-11,9.2c-0.1-1.2,0.5-2.5,2.3-4.3L144.5,8.9z"/>
</g>
<path d="M37,104.8l-0.4-0.5l-7.3,6.1c-1-2.8-1.2-5.3-0.7-7.3L23.9,114c-0.4,0.8-2.4-0.2-3.5,0.9L2.5,133.8
	c-1.5,1.9,10.3,11.4,11.8,9.5l19.4-33.9l2-3.5c1.2,2.1,2.7,2.5,4.6,1.5C39,107.5,37.7,107.1,37,104.8z"/>
<path d="M33,95.1l2.1-1.7l-1.5-5L33,88.6C33.6,90.9,33.5,93.1,33,95.1z"/>
</svg>
