<?xml version="1.0" encoding="utf-8"?>
<!-- Generator: Adobe Illustrator 24.0.1, SVG Export Plug-In . SVG Version: 6.00 Build 0)  -->
<svg version="1.1" id="Camada_3" xmlns="http://www.w3.org/2000/svg" xmlns:xlink="http://www.w3.org/1999/xlink" x="0px" y="0px"
	 viewBox="0 0 150 150" style="enable-background:new 0 0 150 150;" xml:space="preserve">
<style type="text/css">
	.st0{display:none;}
</style>
<polygon class="st0" points="86.9,70.1 86.9,77.9 111.9,76.1 111.9,70.1 "/>
<g>
	<g>
		<path d="M51.6,111.8c33.7-27.3,62.6-55.9,91.7-91.4c3.6-4.3,3.9-9.7,2.5-15.7c-29.7,37.6-62.4,71-99,100.9L51.6,111.8z"/>
		<path d="M41.4,110c-12.2,9.8-24.9,19.2-38,28.2c-1.8,1.3,2.9,7.8,4.7,6.5c13.4-9.5,26.1-18.9,38-28.5L41.4,110z"/>
	</g>
	<rect x="33.9" y="109" transform="matrix(0.6057 0.7957 -0.7957 0.6057 106.3353 6.8801)" width="24.6" height="3.5"/>
</g>
</svg>
