<?xml version="1.0" encoding="utf-8"?>
<!-- Generator: Adobe Illustrator 24.0.1, SVG Export Plug-In . SVG Version: 6.00 Build 0)  -->
<svg version="1.1" id="Camada_3" xmlns="http://www.w3.org/2000/svg" xmlns:xlink="http://www.w3.org/1999/xlink" x="0px" y="0px"
	 viewBox="0 0 150 150" style="enable-background:new 0 0 150 150;" xml:space="preserve">
<style type="text/css">
	.st0{display:none;}
</style>
<polygon class="st0" points="86.9,70.1 86.9,77.9 111.9,76.1 111.9,70.1 "/>
<g>
	<polygon points="129.8,68.1 148.6,125.9 104.4,140.5 107.6,89.1 	"/>
	<path d="M75,66.2c26.7-1.6,39.2-17.8,29.5-56.7c0.2,26.6-7.3,44.4-29.5,45.9V66.2z"/>
	<path d="M75,50.1c12.2-0.6,20.6-9.8,25-27.5c-6.6-5.8-15.1-8.8-25-9.6V50.1z"/>
	<path d="M139,51.7l-16.1-16.3l-9.9,0.2C112.8,60,96.1,69,75,71.4v10.9l27.8-1.7l2.9,4.7L139,51.7z M122.9,46.3l4.5,4.5l-4.5,4.5
		l-4.5-4.5L122.9,46.3z"/>
	<polygon points="20.2,68.1 1.4,125.9 45.6,140.5 42.4,89.1 	"/>
	<path d="M75,66.2C48.3,64.6,35.8,48.3,45.5,9.5C45.3,36.1,52.9,53.9,75,55.4V66.2z"/>
	<path d="M75,50.1c-12.2-0.6-20.6-9.8-25-27.5c6.6-5.8,15.1-8.8,25-9.6V50.1z"/>
	<path d="M44.2,85.3l2.9-4.7L75,82.3V71.4C53.9,69,37.2,60,37,35.6l-9.9-0.2L11,51.7L44.2,85.3z M31.6,50.8l-4.5,4.5l-4.5-4.5
		l4.5-4.5L31.6,50.8z"/>
</g>
</svg>
