<?xml version="1.0" encoding="utf-8"?>
<!-- Generator: Adobe Illustrator 24.0.1, SVG Export Plug-In . SVG Version: 6.00 Build 0)  -->
<svg version="1.1" id="Camada_3" xmlns="http://www.w3.org/2000/svg" xmlns:xlink="http://www.w3.org/1999/xlink" x="0px" y="0px"
	 viewBox="0 0 150 150" style="enable-background:new 0 0 150 150;" xml:space="preserve">
<g>
	<path d="M74.29,61.42c-10.44,0-18.9,8.46-18.9,18.9c0,10.44,8.46,18.9,18.9,18.9s18.9-8.46,18.9-18.9
		C93.18,69.88,84.72,61.42,74.29,61.42z M74.29,91.65c-6.26,0-11.34-5.08-11.34-11.34c0-6.26,5.08-11.34,11.34-11.34
		c6.26,0,11.34,5.08,11.34,11.34C85.63,86.57,80.55,91.65,74.29,91.65z"/>
	<g>
		<path d="M94.24,92.98c-4.2,6.6-11.56,10.99-19.96,10.99c-7.83,0-14.75-3.82-19.05-9.68l-6.06,18.34
			C76.09,104.32,110.46,124,99.01,146c35-7.88,48.48-32.32,50.38-65.69C132.68,101.33,114.61,107.63,94.24,92.98z"/>
		<path d="M97.95,80.31c0,3.1-0.61,6.05-1.69,8.76l19.12-3.87c-20.56-19.25-20.52-58.86,4.26-59.83C95.44-1.12,67.52-0.7,37.61,14.2
			C64.2,18.3,78.58,31.66,75.88,56.74C88.2,57.56,97.95,67.78,97.95,80.31z"/>
		<path d="M71.56,56.83L57.59,41.48c-6.05,27.51-40.13,47.7-53.62,26.89c-10.42,34.33,4.19,58.11,32.28,76.23
			c-10.06-24.96-6.37-43.88,16.58-54.36c-1.4-3.02-2.21-6.38-2.21-9.93C50.63,68.17,59.78,58.18,71.56,56.83z"/>
	</g>
</g>
</svg>
