<?xml version="1.0" encoding="utf-8"?>
<!-- Generator: Adobe Illustrator 24.0.1, SVG Export Plug-In . SVG Version: 6.00 Build 0)  -->
<svg version="1.1" id="Camada_3" xmlns="http://www.w3.org/2000/svg" xmlns:xlink="http://www.w3.org/1999/xlink" x="0px" y="0px"
	 viewBox="0 0 150 150" style="enable-background:new 0 0 150 150;" xml:space="preserve">
<path d="M94.6,56.2L75,2.1L55.4,56.2L1.2,75.9l54.2,19.6L75,149.7l19.6-54.2l54.2-19.6L94.6,56.2z M75,100.3
	c-13.5,0-24.4-10.9-24.4-24.4S61.5,51.4,75,51.4s24.4,10.9,24.4,24.4S88.5,100.3,75,100.3z"/>
<path d="M75,54c-12.1,0-21.9,9.8-21.9,21.9S62.9,97.8,75,97.8S96.9,88,96.9,75.9S87.1,54,75,54z M75,90.2c-7.9,0-14.3-6.4-14.3-14.3
	S67.1,61.6,75,61.6S89.3,68,89.3,75.9S82.9,90.2,75,90.2z"/>
</svg>
